<svg xmlns="http://www.w3.org/2000/svg" viewBox="0 0 256 256">
  <defs>
    <linearGradient id="bg" x1="0" x2="1" y1="0" y2="1">
      <stop offset="0%" stop-color="#f4ede2"/>
      <stop offset="100%" stop-color="#d7c7b2"/>
    </linearGradient>
    <filter id="shadow" x="-20%" y="-20%" width="140%" height="140%">
      <feDropShadow dx="0" dy="8" stdDeviation="10" flood-color="#000000" flood-opacity=".18"/>
    </filter>
  </defs>
  <rect width="256" height="256" rx="56" fill="url(#bg)"/>
  <g filter="url(#shadow)">
    <rect x="44" y="30" width="168" height="196" rx="18" fill="#fffaf4"/>
    <rect x="58" y="44" width="140" height="118" rx="10" fill="#e9dfd0"/>
    <circle cx="128" cy="103" r="28" fill="#c8b39a"/>
    <path d="M79 154c13-22 34-34 50-34 19 0 35 10 48 31 7 11 12 11 21 11v8H58v-7c9 0 14-1 21-9z" fill="#b89c7a"/>
    <rect x="62" y="176" width="88" height="10" rx="5" fill="#1f2937" opacity=".88"/>
    <rect x="62" y="192" width="58" height="8" rx="4" fill="#6b7280" opacity=".7"/>
  </g>
</svg>
